{
  "accessors": [
    {
      "bufferView": 1,
      "componentType": 5126,
      "count": 65534,
      "max": [
        26.899999618530273,
        25.700000762939453,
        26.899999618530273
      ],
      "min": [
        -26.899999618530273,
        -2.7755575615628914e-16,
        -26.899999618530273
      ],
      "type": "VEC3"
    },
    {
      "bufferView": 1,
      "byteOffset": 786408,
      "componentType": 5126,
      "count": 65534,
      "max": [
        1.0,
        1.0,
        1.0
      ],
      "min": [
        -1.0,
        -1.0,
        -1.0
      ],
      "type": "VEC3"
    },
    {
      "bufferView": 0,
      "componentType": 5125,
      "count": 90036,
      "type": "SCALAR"
    },
    {
      "bufferView": 1,
      "byteOffset": 1572816,
      "componentType": 5126,
      "count": 49316,
      "max": [
        26.399999618530273,
        25.700000762939453,
        26.399999618530273
      ],
      "min": [
        -26.399999618530273,
        -2.7755575615628914e-16,
        -26.899999618530273
      ],
      "type": "VEC3"
    },
    {
      "bufferView": 1,
      "byteOffset": 2164608,
      "componentType": 5126,
      "count": 49316,
      "max": [
        0.9998844265937805,
        1.0,
        1.0
      ],
      "min": [
        -0.9999774694442749,
        -1.0,
        -1.0
      ],
      "type": "VEC3"
    },
    {
      "bufferView": 0,
      "byteOffset": 360144,
      "componentType": 5125,
      "count": 64728,
      "type": "SCALAR"
    },
    {
      "bufferView": 1,
      "byteOffset": 2756400,
      "componentType": 5126,
      "count": 65532,
      "max": [
        27.0,
        25.700000762939453,
        27.0
      ],
      "min": [
        -27.0,
        0.0,
        -27.0
      ],
      "type": "VEC3"
    },
    {
      "bufferView": 1,
      "byteOffset": 3542784,
      "componentType": 5126,
      "count": 65532,
      "max": [
        1.0,
        1.0,
        1.0
      ],
      "min": [
        -1.0,
        -1.0,
        -1.0
      ],
      "type": "VEC3"
    },
    {
      "bufferView": 0,
      "byteOffset": 619056,
      "componentType": 5125,
      "count": 100539,
      "type": "SCALAR"
    },
    {
      "bufferView": 1,
      "byteOffset": 4329168,
      "componentType": 5126,
      "count": 65532,
      "max": [
        26.483856201171875,
        25.700000762939453,
        26.5
      ],
      "min": [
        -26.5,
        0.0,
        -26.435447692871094
      ],
      "type": "VEC3"
    },
    {
      "bufferView": 1,
      "byteOffset": 5115552,
      "componentType": 5126,
      "count": 65532,
      "max": [
        0.999963104724884,
        1.0,
        1.0
      ],
      "min": [
        -0.999963104724884,
        -1.0,
        -0.9999682307243347
      ],
      "type": "VEC3"
    },
    {
      "bufferView": 0,
      "byteOffset": 1021212,
      "componentType": 5125,
      "count": 98772,
      "type": "SCALAR"
    },
    {
      "bufferView": 1,
      "byteOffset": 5901936,
      "componentType": 5126,
      "count": 65532,
      "max": [
        26.5,
        25.700000762939453,
        26.5
      ],
      "min": [
        -27.0,
        0.0,
        -26.5
      ],
      "type": "VEC3"
    },
    {
      "bufferView": 1,
      "byteOffset": 6688320,
      "componentType": 5126,
      "count": 65532,
      "max": [
        0.9999802112579346,
        1.0,
        0.9999977350234985
      ],
      "min": [
        -0.9999802112579346,
        -1.0,
        -0.9999995231628418
      ],
      "type": "VEC3"
    },
    {
      "bufferView": 0,
      "byteOffset": 1416300,
      "componentType": 5125,
      "count": 75459,
      "type": "SCALAR"
    },
    {
      "bufferView": 1,
      "byteOffset": 7474704,
      "componentType": 5126,
      "count": 53752,
      "max": [
        26.242103576660156,
        25.700000762939453,
        25.4187068939209
      ],
      "min": [
        -26.5,
        0.0,
        -26.483856201171875
      ],
      "type": "VEC3"
    },
    {
      "bufferView": 1,
      "byteOffset": 8119728,
      "componentType": 5126,
      "count": 53752,
      "max": [
        0.9992197155952454,
        0.9998005628585815,
        0.9994304180145264
      ],
      "min": [
        -0.9998477101325989,
        -0.9987448453903198,
        -0.9993128180503845
      ],
      "type": "VEC3"
    },
    {
      "bufferView": 0,
      "byteOffset": 1718136,
      "componentType": 5125,
      "count": 80628,
      "type": "SCALAR"
    },
    {
      "bufferView": 1,
      "byteOffset": 8764752,
      "componentType": 5126,
      "count": 65533,
      "max": [
        27.0,
        25.700000762939453,
        27.0
      ],
      "min": [
        -27.0,
        0.0,
        -27.0
      ],
      "type": "VEC3"
    },
    {
      "bufferView": 1,
      "byteOffset": 9551148,
      "componentType": 5126,
      "count": 65533,
      "max": [
        1.0,
        1.0,
        1.0
      ],
      "min": [
        -1.0,
        -1.0,
        -1.0
      ],
      "type": "VEC3"
    },
    {
      "bufferView": 0,
      "byteOffset": 2040648,
      "componentType": 5125,
      "count": 102726,
      "type": "SCALAR"
    },
    {
      "bufferView": 1,
      "byteOffset": 10337544,
      "componentType": 5126,
      "count": 65532,
      "max": [
        26.5,
        25.700000762939453,
        26.5
      ],
      "min": [
        -27.0,
        0.0,
        -27.0
      ],
      "type": "VEC3"
    },
    {
      "bufferView": 1,
      "byteOffset": 11123928,
      "componentType": 5126,
      "count": 65532,
      "max": [
        1.0,
        1.0,
        1.0
      ],
      "min": [
        -1.0,
        -1.0,
        -1.0
      ],
      "type": "VEC3"
    },
    {
      "bufferView": 0,
      "byteOffset": 2451552,
      "componentType": 5125,
      "count": 90747,
      "type": "SCALAR"
    },
    {
      "bufferView": 1,
      "byteOffset": 11910312,
      "componentType": 5126,
      "count": 65532,
      "max": [
        26.435447692871094,
        25.700000762939453,
        26.483856201171875
      ],
      "min": [
        -26.5,
        0.0,
        -26.5
      ],
      "type": "VEC3"
    },
    {
      "bufferView": 1,
      "byteOffset": 12696696,
      "componentType": 5126,
      "count": 65532,
      "max": [
        1.0,
        1.0,
        1.0
      ],
      "min": [
        -1.0,
        -1.0,
        -1.0
      ],
      "type": "VEC3"
    },
    {
      "bufferView": 0,
      "byteOffset": 2814540,
      "componentType": 5125,
      "count": 83784,
      "type": "SCALAR"
    },
    {
      "bufferView": 1,
      "byteOffset": 13483080,
      "componentType": 5126,
      "count": 29203,
      "max": [
        26.483856201171875,
        25.700000762939453,
        26.5
      ],
      "min": [
        -26.483856201171875,
        0.0,
        -26.435447692871094
      ],
      "type": "VEC3"
    },
    {
      "bufferView": 1,
      "byteOffset": 13833516,
      "componentType": 5126,
      "count": 29203,
      "max": [
        1.0,
        0.9991995692253113,
        0.999862551689148
      ],
      "min": [
        -1.0,
        -0.9766934514045715,
        -0.9998060464859009
      ],
      "type": "VEC3"
    },
    {
      "bufferView": 0,
      "byteOffset": 3149676,
      "componentType": 5125,
      "count": 43827,
      "type": "SCALAR"
    },
    {
      "bufferView": 1,
      "byteOffset": 14183952,
      "componentType": 5126,
      "count": 65532,
      "max": [
        27.0,
        25.700000762939453,
        27.0
      ],
      "min": [
        -27.0,
        0.0,
        -27.0
      ],
      "type": "VEC3"
    },
    {
      "bufferView": 1,
      "byteOffset": 14970336,
      "componentType": 5126,
      "count": 65532,
      "max": [
        1.0,
        1.0,
        1.0
      ],
      "min": [
        -1.0,
        -1.0,
        -1.0
      ],
      "type": "VEC3"
    },
    {
      "bufferView": 0,
      "byteOffset": 3324984,
      "componentType": 5125,
      "count": 99114,
      "type": "SCALAR"
    },
    {
      "bufferView": 1,
      "byteOffset": 15756720,
      "componentType": 5126,
      "count": 18960,
      "max": [
        26.5,
        25.700000762939453,
        27.0
      ],
      "min": [
        -26.5,
        0.0,
        -26.5
      ],
      "type": "VEC3"
    },
    {
      "bufferView": 1,
      "byteOffset": 15984240,
      "componentType": 5126,
      "count": 18960,
      "max": [
        1.0,
        0.9962032437324524,
        1.0
      ],
      "min": [
        -1.0,
        -0.7071130275726318,
        -0.9999946355819702
      ],
      "type": "VEC3"
    },
    {
      "bufferView": 0,
      "byteOffset": 3721440,
      "componentType": 5125,
      "count": 28650,
      "type": "SCALAR"
    },
    {
      "bufferView": 1,
      "byteOffset": 16211760,
      "componentType": 5126,
      "count": 47309,
      "max": [
        26.899999618530273,
        26.0,
        26.899999618530273
      ],
      "min": [
        -26.899999618530273,
        -2.1431319258495947e-16,
        -26.899999618530273
      ],
      "type": "VEC3"
    },
    {
      "bufferView": 1,
      "byteOffset": 16779468,
      "componentType": 5126,
      "count": 47309,
      "max": [
        1.0,
        1.0,
        1.0
      ],
      "min": [
        -1.0,
        -1.0,
        -1.0
      ],
      "type": "VEC3"
    },
    {
      "bufferView": 0,
      "byteOffset": 3836040,
      "componentType": 5125,
      "count": 73368,
      "type": "SCALAR"
    },
    {
      "bufferView": 1,
      "byteOffset": 17347176,
      "componentType": 5126,
      "count": 50192,
      "max": [
        26.899999618530273,
        26.0,
        26.899999618530273
      ],
      "min": [
        -26.899999618530273,
        -2.1431319258495947e-16,
        -26.899999618530273
      ],
      "type": "VEC3"
    },
    {
      "bufferView": 1,
      "byteOffset": 17949480,
      "componentType": 5126,
      "count": 50192,
      "max": [
        1.0,
        1.0,
        1.0
      ],
      "min": [
        -1.0,
        -1.0,
        -1.0
      ],
      "type": "VEC3"
    },
    {
      "bufferView": 0,
      "byteOffset": 4129512,
      "componentType": 5125,
      "count": 80460,
      "type": "SCALAR"
    },
    {
      "bufferView": 1,
      "byteOffset": 18551784,
      "componentType": 5126,
      "count": 38041,
      "max": [
        27.0,
        25.700000762939453,
        27.0
      ],
      "min": [
        -27.0,
        0.0,
        -27.0
      ],
      "type": "VEC3"
    },
    {
      "bufferView": 1,
      "byteOffset": 19008276,
      "componentType": 5126,
      "count": 38041,
      "max": [
        1.0,
        1.0,
        1.0
      ],
      "min": [
        -1.0,
        -1.0,
        -1.0
      ],
      "type": "VEC3"
    },
    {
      "bufferView": 0,
      "byteOffset": 4451352,
      "componentType": 5125,
      "count": 56934,
      "type": "SCALAR"
    },
    {
      "bufferView": 1,
      "byteOffset": 19464768,
      "componentType": 5126,
      "count": 47316,
      "max": [
        27.0,
        25.700000762939453,
        27.0
      ],
      "min": [
        -27.0,
        0.0,
        -27.0
      ],
      "type": "VEC3"
    },
    {
      "bufferView": 1,
      "byteOffset": 20032560,
      "componentType": 5126,
      "count": 47316,
      "max": [
        1.0,
        1.0,
        1.0
      ],
      "min": [
        -1.0,
        -1.0,
        -1.0
      ],
      "type": "VEC3"
    },
    {
      "bufferView": 0,
      "byteOffset": 4679088,
      "componentType": 5125,
      "count": 71904,
      "type": "SCALAR"
    },
    {
      "bufferView": 1,
      "byteOffset": 20600352,
      "componentType": 5126,
      "count": 65534,
      "max": [
        26.5,
        25.700000762939453,
        26.5
      ],
      "min": [
        -26.5,
        0.0,
        -26.5
      ],
      "type": "VEC3"
    },
    {
      "bufferView": 1,
      "byteOffset": 21386760,
      "componentType": 5126,
      "count": 65534,
      "max": [
        1.0,
        1.0,
        1.0
      ],
      "min": [
        -1.0,
        -1.0,
        -1.0
      ],
      "type": "VEC3"
    },
    {
      "bufferView": 0,
      "byteOffset": 4966704,
      "componentType": 5125,
      "count": 96261,
      "type": "SCALAR"
    },
    {
      "bufferView": 1,
      "byteOffset": 22173168,
      "componentType": 5126,
      "count": 13823,
      "max": [
        26.5,
        25.700000762939453,
        26.496051788330078
      ],
      "min": [
        -26.484209060668945,
        2.424999952316284,
        -26.464475631713867
      ],
      "type": "VEC3"
    },
    {
      "bufferView": 1,
      "byteOffset": 22339044,
      "componentType": 5126,
      "count": 13823,
      "max": [
        0.999951958656311,
        0.9971538186073303,
        0.9999967217445374
      ],
      "min": [
        -0.9999967217445374,
        -1.0,
        -0.9999967217445374
      ],
      "type": "VEC3"
    },
    {
      "bufferView": 0,
      "byteOffset": 5351748,
      "componentType": 5125,
      "count": 20733,
      "type": "SCALAR"
    },
    {
      "bufferView": 1,
      "byteOffset": 22504920,
      "componentType": 5126,
      "count": 65532,
      "max": [
        26.899999618530273,
        26.0,
        26.899999618530273
      ],
      "min": [
        -26.899999618530273,
        -2.7755575615628914e-16,
        -26.899999618530273
      ],
      "type": "VEC3"
    },
    {
      "bufferView": 1,
      "byteOffset": 23291304,
      "componentType": 5126,
      "count": 65532,
      "max": [
        1.0,
        1.0,
        1.0
      ],
      "min": [
        -1.0,
        -1.0,
        -1.0
      ],
      "type": "VEC3"
    },
    {
      "bufferView": 0,
      "byteOffset": 5434680,
      "componentType": 5125,
      "count": 104130,
      "type": "SCALAR"
    },
    {
      "bufferView": 1,
      "byteOffset": 24077688,
      "componentType": 5126,
      "count": 43452,
      "max": [
        26.399999618530273,
        26.0,
        26.399999618530273
      ],
      "min": [
        -26.899999618530273,
        -2.7755575615628914e-16,
        -26.399999618530273
      ],
      "type": "VEC3"
    },
    {
      "bufferView": 1,
      "byteOffset": 24599112,
      "componentType": 5126,
      "count": 43452,
      "max": [
        1.0,
        1.0,
        1.0
      ],
      "min": [
        -1.0,
        -1.0,
        -0.9999997615814209
      ],
      "type": "VEC3"
    },
    {
      "bufferView": 0,
      "byteOffset": 5851200,
      "componentType": 5125,
      "count": 59100,
      "type": "SCALAR"
    },
    {
      "bufferView": 1,
      "byteOffset": 25120536,
      "componentType": 5126,
      "count": 65532,
      "max": [
        26.899999618530273,
        26.0,
        26.899999618530273
      ],
      "min": [
        -26.899999618530273,
        -2.7755575615628914e-16,
        -26.899999618530273
      ],
      "type": "VEC3"
    },
    {
      "bufferView": 1,
      "byteOffset": 25906920,
      "componentType": 5126,
      "count": 65532,
      "max": [
        1.0,
        1.0,
        1.0
      ],
      "min": [
        -1.0,
        -1.0,
        -1.0
      ],
      "type": "VEC3"
    },
    {
      "bufferView": 0,
      "byteOffset": 6087600,
      "componentType": 5125,
      "count": 105621,
      "type": "SCALAR"
    },
    {
      "bufferView": 1,
      "byteOffset": 26693304,
      "componentType": 5126,
      "count": 56490,
      "max": [
        26.399999618530273,
        26.0,
        26.899999618530273
      ],
      "min": [
        -26.399999618530273,
        -2.7755575615628914e-16,
        -26.399999618530273
      ],
      "type": "VEC3"
    },
    {
      "bufferView": 1,
      "byteOffset": 27371184,
      "componentType": 5126,
      "count": 56490,
      "max": [
        1.0,
        1.0,
        1.0
      ],
      "min": [
        -1.0,
        -1.0,
        -1.0
      ],
      "type": "VEC3"
    },
    {
      "bufferView": 0,
      "byteOffset": 6510084,
      "componentType": 5125,
      "count": 77313,
      "type": "SCALAR"
    },
    {
      "bufferView": 1,
      "byteOffset": 28049064,
      "componentType": 5126,
      "count": 65533,
      "max": [
        27.0,
        25.700000762939453,
        27.0
      ],
      "min": [
        -27.0,
        0.0,
        -27.0
      ],
      "type": "VEC3"
    },
    {
      "bufferView": 1,
      "byteOffset": 28835460,
      "componentType": 5126,
      "count": 65533,
      "max": [
        1.0,
        1.0,
        1.0
      ],
      "min": [
        -1.0,
        -1.0,
        -1.0
      ],
      "type": "VEC3"
    },
    {
      "bufferView": 0,
      "byteOffset": 6819336,
      "componentType": 5125,
      "count": 98139,
      "type": "SCALAR"
    },
    {
      "bufferView": 1,
      "byteOffset": 29621856,
      "componentType": 5126,
      "count": 10279,
      "max": [
        26.242103576660156,
        25.700000762939453,
        26.483856201171875
      ],
      "min": [
        -26.5,
        0.0,
        -26.5
      ],
      "type": "VEC3"
    },
    {
      "bufferView": 1,
      "byteOffset": 29745204,
      "componentType": 5126,
      "count": 10279,
      "max": [
        1.0,
        1.0,
        0.9986295700073242
      ],
      "min": [
        -1.0,
        -0.7071130275726318,
        -0.9998477101325989
      ],
      "type": "VEC3"
    },
    {
      "bufferView": 0,
      "byteOffset": 7211892,
      "componentType": 5125,
      "count": 15417,
      "type": "SCALAR"
    },
    {
      "bufferView": 1,
      "byteOffset": 29868552,
      "componentType": 5126,
      "count": 65532,
      "max": [
        27.0,
        25.700000762939453,
        27.0
      ],
      "min": [
        -27.0,
        0.0,
        -27.0
      ],
      "type": "VEC3"
    },
    {
      "bufferView": 1,
      "byteOffset": 30654936,
      "componentType": 5126,
      "count": 65532,
      "max": [
        1.0,
        1.0,
        1.0
      ],
      "min": [
        -1.0,
        -1.0,
        -1.0
      ],
      "type": "VEC3"
    },
    {
      "bufferView": 0,
      "byteOffset": 7273560,
      "componentType": 5125,
      "count": 102180,
      "type": "SCALAR"
    },
    {
      "bufferView": 1,
      "byteOffset": 31441320,
      "componentType": 5126,
      "count": 65532,
      "max": [
        26.5,
        25.700000762939453,
        26.5
      ],
      "min": [
        -27.0,
        0.0,
        -26.5
      ],
      "type": "VEC3"
    },
    {
      "bufferView": 1,
      "byteOffset": 32227704,
      "componentType": 5126,
      "count": 65532,
      "max": [
        1.0,
        1.0,
        1.0
      ],
      "min": [
        -1.0,
        -1.0,
        -0.9999842643737793
      ],
      "type": "VEC3"
    },
    {
      "bufferView": 0,
      "byteOffset": 7682280,
      "componentType": 5125,
      "count": 82227,
      "type": "SCALAR"
    },
    {
      "bufferView": 1,
      "byteOffset": 33014088,
      "componentType": 5126,
      "count": 37735,
      "max": [
        25.73188591003418,
        25.700000762939453,
        26.354829788208008
      ],
      "min": [
        -25.603179931640625,
        0.0,
        -25.473434448242188
      ],
      "type": "VEC3"
    },
    {
      "bufferView": 1,
      "byteOffset": 33466908,
      "componentType": 5126,
      "count": 37735,
      "max": [
        0.9994134902954102,
        0.9999957084655762,
        0.9999870657920837
      ],
      "min": [
        -0.9999598860740662,
        -0.9987990856170654,
        -0.9999870657920837
      ],
      "type": "VEC3"
    },
    {
      "bufferView": 0,
      "byteOffset": 8011188,
      "componentType": 5125,
      "count": 56601,
      "type": "SCALAR"
    }
  ],
  "asset": {
    "extras": {
      "author": "Imagigoo (https://sketchfab.com/Imagigoo)",
      "license": "CC-BY-4.0 (http://creativecommons.org/licenses/by/4.0/)",
      "source": "https://sketchfab.com/3d-models/alloy-wheel-rims-free-5e04d32fcb174e3b882857168ddb2059",
      "title": "Alloy Wheel Rims (Free)"
    },
    "generator": "Sketchfab-12.67.0",
    "version": "2.0"
  },
  "bufferViews": [
    {
      "buffer": 0,
      "byteLength": 8237592,
      "name": "floatBufferViews",
      "target": 34963
    },
    {
      "buffer": 0,
      "byteLength": 33919728,
      "byteOffset": 8237592,
      "byteStride": 12,
      "name": "floatBufferViews",
      "target": 34962
    }
  ],
  "buffers": [
    {
      "byteLength": 42157320,
      "uri": "scene.bin"
    }
  ],
  "materials": [
    {
      "doubleSided": true,
      "name": "Material",
      "pbrMetallicRoughness": {
        "baseColorFactor": [
          0.545716,
          0.545716,
          0.545716,
          1.0
        ],
        "roughnessFactor": 0.127273
      }
    }
  ],
  "meshes": [
    {
      "name": "Object_0",
      "primitives": [
        {
          "attributes": {
            "NORMAL": 1,
            "POSITION": 0
          },
          "indices": 2,
          "material": 0,
          "mode": 4
        }
      ]
    },
    {
      "name": "Object_1",
      "primitives": [
        {
          "attributes": {
            "NORMAL": 4,
            "POSITION": 3
          },
          "indices": 5,
          "material": 0,
          "mode": 4
        }
      ]
    },
    {
      "name": "Object_2",
      "primitives": [
        {
          "attributes": {
            "NORMAL": 7,
            "POSITION": 6
          },
          "indices": 8,
          "material": 0,
          "mode": 4
        }
      ]
    },
    {
      "name": "Object_3",
      "primitives": [
        {
          "attributes": {
            "NORMAL": 10,
            "POSITION": 9
          },
          "indices": 11,
          "material": 0,
          "mode": 4
        }
      ]
    },
    {
      "name": "Object_4",
      "primitives": [
        {
          "attributes": {
            "NORMAL": 13,
            "POSITION": 12
          },
          "indices": 14,
          "material": 0,
          "mode": 4
        }
      ]
    },
    {
      "name": "Object_5",
      "primitives": [
        {
          "attributes": {
            "NORMAL": 16,
            "POSITION": 15
          },
          "indices": 17,
          "material": 0,
          "mode": 4
        }
      ]
    },
    {
      "name": "Object_6",
      "primitives": [
        {
          "attributes": {
            "NORMAL": 19,
            "POSITION": 18
          },
          "indices": 20,
          "material": 0,
          "mode": 4
        }
      ]
    },
    {
      "name": "Object_7",
      "primitives": [
        {
          "attributes": {
            "NORMAL": 22,
            "POSITION": 21
          },
          "indices": 23,
          "material": 0,
          "mode": 4
        }
      ]
    },
    {
      "name": "Object_8",
      "primitives": [
        {
          "attributes": {
            "NORMAL": 25,
            "POSITION": 24
          },
          "indices": 26,
          "material": 0,
          "mode": 4
        }
      ]
    },
    {
      "name": "Object_9",
      "primitives": [
        {
          "attributes": {
            "NORMAL": 28,
            "POSITION": 27
          },
          "indices": 29,
          "material": 0,
          "mode": 4
        }
      ]
    },
    {
      "name": "Object_10",
      "primitives": [
        {
          "attributes": {
            "NORMAL": 31,
            "POSITION": 30
          },
          "indices": 32,
          "material": 0,
          "mode": 4
        }
      ]
    },
    {
      "name": "Object_11",
      "primitives": [
        {
          "attributes": {
            "NORMAL": 34,
            "POSITION": 33
          },
          "indices": 35,
          "material": 0,
          "mode": 4
        }
      ]
    },
    {
      "name": "Object_12",
      "primitives": [
        {
          "attributes": {
            "NORMAL": 37,
            "POSITION": 36
          },
          "indices": 38,
          "material": 0,
          "mode": 4
        }
      ]
    },
    {
      "name": "Object_13",
      "primitives": [
        {
          "attributes": {
            "NORMAL": 40,
            "POSITION": 39
          },
          "indices": 41,
          "material": 0,
          "mode": 4
        }
      ]
    },
    {
      "name": "Object_14",
      "primitives": [
        {
          "attributes": {
            "NORMAL": 43,
            "POSITION": 42
          },
          "indices": 44,
          "material": 0,
          "mode": 4
        }
      ]
    },
    {
      "name": "Object_15",
      "primitives": [
        {
          "attributes": {
            "NORMAL": 46,
            "POSITION": 45
          },
          "indices": 47,
          "material": 0,
          "mode": 4
        }
      ]
    },
    {
      "name": "Object_16",
      "primitives": [
        {
          "attributes": {
            "NORMAL": 49,
            "POSITION": 48
          },
          "indices": 50,
          "material": 0,
          "mode": 4
        }
      ]
    },
    {
      "name": "Object_17",
      "primitives": [
        {
          "attributes": {
            "NORMAL": 52,
            "POSITION": 51
          },
          "indices": 53,
          "material": 0,
          "mode": 4
        }
      ]
    },
    {
      "name": "Object_18",
      "primitives": [
        {
          "attributes": {
            "NORMAL": 55,
            "POSITION": 54
          },
          "indices": 56,
          "material": 0,
          "mode": 4
        }
      ]
    },
    {
      "name": "Object_19",
      "primitives": [
        {
          "attributes": {
            "NORMAL": 58,
            "POSITION": 57
          },
          "indices": 59,
          "material": 0,
          "mode": 4
        }
      ]
    },
    {
      "name": "Object_20",
      "primitives": [
        {
          "attributes": {
            "NORMAL": 61,
            "POSITION": 60
          },
          "indices": 62,
          "material": 0,
          "mode": 4
        }
      ]
    },
    {
      "name": "Object_21",
      "primitives": [
        {
          "attributes": {
            "NORMAL": 64,
            "POSITION": 63
          },
          "indices": 65,
          "material": 0,
          "mode": 4
        }
      ]
    },
    {
      "name": "Object_22",
      "primitives": [
        {
          "attributes": {
            "NORMAL": 67,
            "POSITION": 66
          },
          "indices": 68,
          "material": 0,
          "mode": 4
        }
      ]
    },
    {
      "name": "Object_23",
      "primitives": [
        {
          "attributes": {
            "NORMAL": 70,
            "POSITION": 69
          },
          "indices": 71,
          "material": 0,
          "mode": 4
        }
      ]
    },
    {
      "name": "Object_24",
      "primitives": [
        {
          "attributes": {
            "NORMAL": 73,
            "POSITION": 72
          },
          "indices": 74,
          "material": 0,
          "mode": 4
        }
      ]
    },
    {
      "name": "Object_25",
      "primitives": [
        {
          "attributes": {
            "NORMAL": 76,
            "POSITION": 75
          },
          "indices": 77,
          "material": 0,
          "mode": 4
        }
      ]
    },
    {
      "name": "Object_26",
      "primitives": [
        {
          "attributes": {
            "NORMAL": 79,
            "POSITION": 78
          },
          "indices": 80,
          "material": 0,
          "mode": 4
        }
      ]
    }
  ],
  "nodes": [
    {
      "children": [
        1
      ],
      "matrix": [
        1.0,
        -1.6081226229577292e-16,
        -3.5707495248565405e-32,
        0.0,
        0.0,
        2.220446049250313e-16,
        -1.0,
        0.0,
        1.6081226229577292e-16,
        1.0,
        2.220446049250313e-16,
        0.0,
        0.0,
        1.9539925233402755e-14,
        4.338734978715565e-30,
        1.0
      ],
      "name": "Sketchfab_model"
    },
    {
      "children": [
        2
      ],
      "name": "root"
    },
    {
      "children": [
        3,
        6,
        11,
        16,
        19,
        21,
        23,
        25,
        27,
        30,
        33,
        36,
        39
      ],
      "matrix": [
        1.0,
        0.0,
        0.0,
        0.0,
        0.0,
        2.220446049250313e-16,
        1.0,
        0.0,
        0.0,
        -1.0,
        2.220446049250313e-16,
        0.0,
        0.0,
        0.0,
        0.0,
        1.0
      ],
      "name": "GLTF_SceneRootNode"
    },
    {
      "children": [
        4,
        5
      ],
      "matrix": [
        1.0,
        0.0,
        0.0,
        0.0,
        0.0,
        1.0,
        0.0,
        0.0,
        0.0,
        0.0,
        1.0,
        0.0,
        60.0,
        0.0,
        0.0,
        1.0
      ],
      "name": "BBS_0"
    },
    {
      "mesh": 0,
      "name": "Object_4"
    },
    {
      "mesh": 1,
      "name": "Object_5"
    },
    {
      "children": [
        7,
        8,
        9,
        10
      ],
      "matrix": [
        1.0,
        0.0,
        0.0,
        0.0,
        0.0,
        1.0,
        0.0,
        0.0,
        0.0,
        0.0,
        1.0,
        0.0,
        60.0,
        0.0,
        60.0,
        1.0
      ],
      "name": "Masita_1"
    },
    {
      "mesh": 2,
      "name": "Object_7"
    },
    {
      "mesh": 3,
      "name": "Object_8"
    },
    {
      "mesh": 4,
      "name": "Object_9"
    },
    {
      "mesh": 5,
      "name": "Object_10"
    },
    {
      "children": [
        12,
        13,
        14,
        15
      ],
      "matrix": [
        1.0,
        0.0,
        0.0,
        0.0,
        0.0,
        1.0,
        0.0,
        0.0,
        0.0,
        0.0,
        1.0,
        0.0,
        0.0,
        0.0,
        -60.0,
        1.0
      ],
      "name": "Euro_2"
    },
    {
      "mesh": 6,
      "name": "Object_12"
    },
    {
      "mesh": 7,
      "name": "Object_13"
    },
    {
      "mesh": 8,
      "name": "Object_14"
    },
    {
      "mesh": 9,
      "name": "Object_15"
    },
    {
      "children": [
        17,
        18
      ],
      "name": "Skol_3"
    },
    {
      "mesh": 10,
      "name": "Object_17"
    },
    {
      "mesh": 11,
      "name": "Object_18"
    },
    {
      "children": [
        20
      ],
      "matrix": [
        1.0,
        0.0,
        0.0,
        0.0,
        0.0,
        1.0,
        0.0,
        0.0,
        0.0,
        0.0,
        1.0,
        0.0,
        180.0,
        0.0,
        60.0,
        1.0
      ],
      "name": "Hotrod_Front_4"
    },
    {
      "mesh": 12,
      "name": "Object_20"
    },
    {
      "children": [
        22
      ],
      "matrix": [
        1.0,
        0.0,
        0.0,
        0.0,
        0.0,
        1.0,
        0.0,
        0.0,
        0.0,
        0.0,
        1.0,
        0.0,
        120.0,
        0.0,
        60.0,
        1.0
      ],
      "name": "Hotrod_Rear_5"
    },
    {
      "mesh": 13,
      "name": "Object_22"
    },
    {
      "children": [
        24
      ],
      "matrix": [
        1.0,
        0.0,
        0.0,
        0.0,
        0.0,
        1.0,
        0.0,
        0.0,
        0.0,
        0.0,
        1.0,
        0.0,
        240.0,
        0.0,
        60.0,
        1.0
      ],
      "name": "M1_6"
    },
    {
      "mesh": 14,
      "name": "Object_24"
    },
    {
      "children": [
        26
      ],
      "matrix": [
        1.0,
        0.0,
        0.0,
        0.0,
        0.0,
        1.0,
        0.0,
        0.0,
        0.0,
        0.0,
        1.0,
        0.0,
        120.0,
        0.0,
        -60.0,
        1.0
      ],
      "name": "Hiyashi_7"
    },
    {
      "mesh": 15,
      "name": "Object_26"
    },
    {
      "children": [
        28,
        29
      ],
      "matrix": [
        1.0,
        0.0,
        0.0,
        0.0,
        0.0,
        1.0,
        0.0,
        0.0,
        0.0,
        0.0,
        1.0,
        0.0,
        0.0,
        0.0,
        60.0,
        1.0
      ],
      "name": "Retro_8"
    },
    {
      "mesh": 16,
      "name": "Object_28"
    },
    {
      "mesh": 17,
      "name": "Object_29"
    },
    {
      "children": [
        31,
        32
      ],
      "matrix": [
        1.0,
        0.0,
        0.0,
        0.0,
        0.0,
        1.0,
        0.0,
        0.0,
        0.0,
        0.0,
        1.0,
        0.0,
        120.0,
        0.0,
        0.0,
        1.0
      ],
      "name": "Staggered_Shallow_9"
    },
    {
      "mesh": 18,
      "name": "Object_31"
    },
    {
      "mesh": 19,
      "name": "Object_32"
    },
    {
      "children": [
        34,
        35
      ],
      "matrix": [
        1.0,
        0.0,
        0.0,
        0.0,
        0.0,
        1.0,
        0.0,
        0.0,
        0.0,
        0.0,
        1.0,
        0.0,
        180.0,
        0.0,
        0.0,
        1.0
      ],
      "name": "Staggered_Deep_10"
    },
    {
      "mesh": 20,
      "name": "Object_34"
    },
    {
      "mesh": 21,
      "name": "Object_35"
    },
    {
      "children": [
        37,
        38
      ],
      "matrix": [
        1.0,
        0.0,
        0.0,
        0.0,
        0.0,
        1.0,
        0.0,
        0.0,
        0.0,
        0.0,
        1.0,
        0.0,
        60.0,
        0.0,
        -60.0,
        1.0
      ],
      "name": "F40_11"
    },
    {
      "mesh": 22,
      "name": "Object_37"
    },
    {
      "mesh": 23,
      "name": "Object_38"
    },
    {
      "children": [
        40,
        41,
        42
      ],
      "matrix": [
        1.0,
        0.0,
        0.0,
        0.0,
        0.0,
        1.0,
        0.0,
        0.0,
        0.0,
        0.0,
        1.0,
        0.0,
        180.0,
        0.0,
        -60.0,
        1.0
      ],
      "name": "RPF1_12"
    },
    {
      "mesh": 24,
      "name": "Object_40"
    },
    {
      "mesh": 25,
      "name": "Object_41"
    },
    {
      "mesh": 26,
      "name": "Object_42"
    }
  ],
  "scene": 0,
  "scenes": [
    {
      "name": "Sketchfab_Scene",
      "nodes": [
        0
      ]
    }
  ]
}
