{
  "accessors": [
    {
      "bufferView": 2,
      "componentType": 5126,
      "count": 96,
      "max": [
        0.9993118047714233,
        0.35333746671676636,
        0.0882754772901535
      ],
      "min": [
        -0.9993118047714233,
        -0.020310018211603165,
        -0.02860158681869507
      ],
      "type": "VEC3"
    },
    {
      "bufferView": 2,
      "byteOffset": 1152,
      "componentType": 5126,
      "count": 96,
      "max": [
        0.2368074208498001,
        1.0,
        0.9634130001068115
      ],
      "min": [
        -0.2368074208498001,
        -1.0,
        -1.0
      ],
      "type": "VEC3"
    },
    {
      "bufferView": 1,
      "componentType": 5126,
      "count": 96,
      "max": [
        0.75,
        0.875
      ],
      "min": [
        0.25,
        0.375
      ],
      "type": "VEC2"
    },
    {
      "bufferView": 0,
      "componentType": 5125,
      "count": 180,
      "type": "SCALAR"
    },
    {
      "bufferView": 2,
      "byteOffset": 2304,
      "componentType": 5126,
      "count": 124,
      "max": [
        19.4086971282959,
        5.045994758605957,
        0.3230603337287903
      ],
      "min": [
        -19.4086971282959,
        -2.02064847946167,
        -3.3056161403656006
      ],
      "type": "VEC3"
    },
    {
      "bufferView": 2,
      "byteOffset": 3792,
      "componentType": 5126,
      "count": 124,
      "max": [
        0.8571661710739136,
        0.9999992251396179,
        1.0
      ],
      "min": [
        -1.0,
        -0.9996318817138672,
        -1.0
      ],
      "type": "VEC3"
    },
    {
      "bufferView": 1,
      "byteOffset": 768,
      "componentType": 5126,
      "count": 124,
      "max": [
        0.875,
        1.0
      ],
      "min": [
        0.125,
        0.0
      ],
      "type": "VEC2"
    },
    {
      "bufferView": 0,
      "byteOffset": 720,
      "componentType": 5125,
      "count": 306,
      "type": "SCALAR"
    },
    {
      "bufferView": 2,
      "byteOffset": 5280,
      "componentType": 5126,
      "count": 156,
      "max": [
        11.48769474029541,
        2.861262798309326,
        2.6641058921813965
      ],
      "min": [
        -11.48769474029541,
        -0.3034077286720276,
        0.6314144134521484
      ],
      "type": "VEC3"
    },
    {
      "bufferView": 2,
      "byteOffset": 7152,
      "componentType": 5126,
      "count": 156,
      "max": [
        1.0,
        0.8916857838630676,
        1.0
      ],
      "min": [
        -1.0,
        -1.0,
        -1.0
      ],
      "type": "VEC3"
    },
    {
      "bufferView": 1,
      "byteOffset": 1760,
      "componentType": 5126,
      "count": 156,
      "max": [
        0.875,
        1.0
      ],
      "min": [
        0.125,
        0.0
      ],
      "type": "VEC2"
    },
    {
      "bufferView": 0,
      "byteOffset": 1944,
      "componentType": 5125,
      "count": 336,
      "type": "SCALAR"
    },
    {
      "bufferView": 2,
      "byteOffset": 9024,
      "componentType": 5126,
      "count": 157,
      "max": [
        11.763739585876465,
        1.0,
        1.6598082780838013
      ],
      "min": [
        -11.763739585876465,
        -2.960444927215576,
        -0.04096364974975586
      ],
      "type": "VEC3"
    },
    {
      "bufferView": 2,
      "byteOffset": 10908,
      "componentType": 5126,
      "count": 157,
      "max": [
        0.0,
        1.0,
        1.0
      ],
      "min": [
        -1.0,
        -1.0,
        -1.0
      ],
      "type": "VEC3"
    },
    {
      "bufferView": 1,
      "byteOffset": 3008,
      "componentType": 5126,
      "count": 157,
      "max": [
        0.875,
        1.0
      ],
      "min": [
        0.125,
        0.0
      ],
      "type": "VEC2"
    },
    {
      "bufferView": 0,
      "byteOffset": 3288,
      "componentType": 5125,
      "count": 378,
      "type": "SCALAR"
    },
    {
      "bufferView": 2,
      "byteOffset": 12792,
      "componentType": 5126,
      "count": 148,
      "max": [
        11.48769474029541,
        2.6374878883361816,
        2.5523808002471924
      ],
      "min": [
        -11.48769474029541,
        -0.30340778827667236,
        0.5650571584701538
      ],
      "type": "VEC3"
    },
    {
      "bufferView": 2,
      "byteOffset": 14568,
      "componentType": 5126,
      "count": 148,
      "max": [
        1.0,
        0.9834836721420288,
        1.0
      ],
      "min": [
        -1.0,
        -1.0,
        -0.999997615814209
      ],
      "type": "VEC3"
    },
    {
      "bufferView": 1,
      "byteOffset": 4264,
      "componentType": 5126,
      "count": 148,
      "max": [
        0.875,
        1.0
      ],
      "min": [
        0.125,
        0.0
      ],
      "type": "VEC2"
    },
    {
      "bufferView": 0,
      "byteOffset": 4800,
      "componentType": 5125,
      "count": 348,
      "type": "SCALAR"
    },
    {
      "bufferView": 2,
      "byteOffset": 16344,
      "componentType": 5126,
      "count": 148,
      "max": [
        13.326578140258789,
        2.65024471282959,
        2.528932571411133
      ],
      "min": [
        -13.326578140258789,
        -4.488921642303467,
        -0.8242455720901489
      ],
      "type": "VEC3"
    },
    {
      "bufferView": 2,
      "byteOffset": 18120,
      "componentType": 5126,
      "count": 148,
      "max": [
        1.0,
        0.3948526978492737,
        0.9941681623458862
      ],
      "min": [
        -1.0,
        -1.0,
        -0.9941681027412415
      ],
      "type": "VEC3"
    },
    {
      "bufferView": 1,
      "byteOffset": 5448,
      "componentType": 5126,
      "count": 148,
      "max": [
        0.875,
        1.0
      ],
      "min": [
        0.125,
        0.0
      ],
      "type": "VEC2"
    },
    {
      "bufferView": 0,
      "byteOffset": 6192,
      "componentType": 5125,
      "count": 420,
      "type": "SCALAR"
    },
    {
      "bufferView": 2,
      "byteOffset": 19896,
      "componentType": 5126,
      "count": 182,
      "max": [
        17.64766502380371,
        1.4972527027130127,
        5.542473316192627
      ],
      "min": [
        -17.64766502380371,
        -1.1828621625900269,
        -5.101212501525879
      ],
      "type": "VEC3"
    },
    {
      "bufferView": 2,
      "byteOffset": 22080,
      "componentType": 5126,
      "count": 182,
      "max": [
        1.0,
        1.0,
        0.7627760171890259
      ],
      "min": [
        -1.0,
        -1.0,
        -1.0
      ],
      "type": "VEC3"
    },
    {
      "bufferView": 1,
      "byteOffset": 6632,
      "componentType": 5126,
      "count": 182,
      "max": [
        0.875,
        1.0
      ],
      "min": [
        0.125,
        0.0
      ],
      "type": "VEC2"
    },
    {
      "bufferView": 0,
      "byteOffset": 7872,
      "componentType": 5125,
      "count": 444,
      "type": "SCALAR"
    },
    {
      "bufferView": 2,
      "byteOffset": 24264,
      "componentType": 5126,
      "count": 140,
      "max": [
        4.720761299133301,
        0.4880073666572571,
        0.6703155636787415
      ],
      "min": [
        -4.720761299133301,
        -1.469726800918579,
        -1.4219764471054077
      ],
      "type": "VEC3"
    },
    {
      "bufferView": 2,
      "byteOffset": 25944,
      "componentType": 5126,
      "count": 140,
      "max": [
        1.0,
        1.0,
        0.9999988675117493
      ],
      "min": [
        -1.0,
        -1.0,
        -0.9999886751174927
      ],
      "type": "VEC3"
    },
    {
      "bufferView": 1,
      "byteOffset": 8088,
      "componentType": 5126,
      "count": 140,
      "max": [
        0.875,
        1.0
      ],
      "min": [
        0.125,
        0.0
      ],
      "type": "VEC2"
    },
    {
      "bufferView": 0,
      "byteOffset": 9648,
      "componentType": 5125,
      "count": 222,
      "type": "SCALAR"
    },
    {
      "bufferView": 2,
      "byteOffset": 27624,
      "componentType": 5126,
      "count": 164,
      "max": [
        17.6262264251709,
        1.3350749015808105,
        4.541925430297852
      ],
      "min": [
        -17.6262264251709,
        -1.6976659297943115,
        -12.60643482208252
      ],
      "type": "VEC3"
    },
    {
      "bufferView": 2,
      "byteOffset": 29592,
      "componentType": 5126,
      "count": 164,
      "max": [
        1.0,
        1.0,
        0.7627760171890259
      ],
      "min": [
        -1.0,
        -1.0,
        -1.0
      ],
      "type": "VEC3"
    },
    {
      "bufferView": 1,
      "byteOffset": 9208,
      "componentType": 5126,
      "count": 164,
      "max": [
        0.875,
        1.0
      ],
      "min": [
        0.125,
        0.25
      ],
      "type": "VEC2"
    },
    {
      "bufferView": 0,
      "byteOffset": 10536,
      "componentType": 5125,
      "count": 366,
      "type": "SCALAR"
    },
    {
      "bufferView": 2,
      "byteOffset": 31560,
      "componentType": 5126,
      "count": 384,
      "max": [
        13.599270820617676,
        2.861262798309326,
        2.5523808002471924
      ],
      "min": [
        -13.599270820617676,
        -2.61555814743042,
        -2.2481441497802734
      ],
      "type": "VEC3"
    },
    {
      "bufferView": 2,
      "byteOffset": 36168,
      "componentType": 5126,
      "count": 384,
      "max": [
        1.0,
        1.0,
        1.0
      ],
      "min": [
        -1.0,
        -1.0,
        -1.0
      ],
      "type": "VEC3"
    },
    {
      "bufferView": 1,
      "byteOffset": 10520,
      "componentType": 5126,
      "count": 384,
      "max": [
        0.875,
        1.0
      ],
      "min": [
        0.125,
        0.0
      ],
      "type": "VEC2"
    },
    {
      "bufferView": 0,
      "byteOffset": 12000,
      "componentType": 5125,
      "count": 732,
      "type": "SCALAR"
    },
    {
      "bufferView": 2,
      "byteOffset": 40776,
      "componentType": 5126,
      "count": 296,
      "max": [
        1.0318180322647095,
        0.3536999523639679,
        0.1230652779340744
      ],
      "min": [
        -1.0318180322647095,
        -0.08216491341590881,
        -0.27654165029525757
      ],
      "type": "VEC3"
    },
    {
      "bufferView": 2,
      "byteOffset": 44328,
      "componentType": 5126,
      "count": 296,
      "max": [
        1.0,
        0.9996880888938904,
        0.9696658849716187
      ],
      "min": [
        -1.0,
        -0.9993982911109924,
        -1.0
      ],
      "type": "VEC3"
    },
    {
      "bufferView": 1,
      "byteOffset": 13592,
      "componentType": 5126,
      "count": 296,
      "max": [
        0.7201172113418579,
        0.8451172709465027
      ],
      "min": [
        0.2798827886581421,
        0.4048827886581421
      ],
      "type": "VEC2"
    },
    {
      "bufferView": 0,
      "byteOffset": 14928,
      "componentType": 5125,
      "count": 504,
      "type": "SCALAR"
    },
    {
      "bufferView": 2,
      "byteOffset": 47880,
      "componentType": 5126,
      "count": 176,
      "max": [
        11.870098114013672,
        3.487950325012207,
        2.7870588302612305
      ],
      "min": [
        -11.870098114013672,
        -1.7986539602279663,
        -1.7960432767868042
      ],
      "type": "VEC3"
    },
    {
      "bufferView": 2,
      "byteOffset": 49992,
      "componentType": 5126,
      "count": 176,
      "max": [
        1.0,
        0.921128511428833,
        1.0
      ],
      "min": [
        -1.0,
        -1.0,
        -1.0
      ],
      "type": "VEC3"
    },
    {
      "bufferView": 1,
      "byteOffset": 15960,
      "componentType": 5126,
      "count": 176,
      "max": [
        0.625,
        0.7526620626449585
      ],
      "min": [
        0.37233787775039673,
        0.5
      ],
      "type": "VEC2"
    },
    {
      "bufferView": 0,
      "byteOffset": 16944,
      "componentType": 5125,
      "count": 384,
      "type": "SCALAR"
    },
    {
      "bufferView": 2,
      "byteOffset": 52104,
      "componentType": 5126,
      "count": 635,
      "max": [
        12.121037483215332,
        1.1725300550460815,
        1.872147798538208
      ],
      "min": [
        -12.121037483215332,
        -4.222904682159424,
        -2.6014363765716553
      ],
      "type": "VEC3"
    },
    {
      "bufferView": 2,
      "byteOffset": 59724,
      "componentType": 5126,
      "count": 635,
      "max": [
        1.0,
        1.0,
        1.0
      ],
      "min": [
        -1.0,
        -1.0,
        -1.0
      ],
      "type": "VEC3"
    },
    {
      "bufferView": 1,
      "byteOffset": 17368,
      "componentType": 5126,
      "count": 635,
      "max": [
        0.7575042247772217,
        0.8825041651725769
      ],
      "min": [
        0.2424958050251007,
        0.5
      ],
      "type": "VEC2"
    },
    {
      "bufferView": 0,
      "byteOffset": 18480,
      "componentType": 5125,
      "count": 1176,
      "type": "SCALAR"
    },
    {
      "bufferView": 2,
      "byteOffset": 67344,
      "componentType": 5126,
      "count": 136,
      "max": [
        11.870098114013672,
        4.329304218292236,
        3.915158271789551
      ],
      "min": [
        -11.870098114013672,
        -2.756105899810791,
        -2.63607120513916
      ],
      "type": "VEC3"
    },
    {
      "bufferView": 2,
      "byteOffset": 68976,
      "componentType": 5126,
      "count": 136,
      "max": [
        1.0,
        0.8848104476928711,
        0.9990258812904358
      ],
      "min": [
        -1.0,
        -0.9532064199447632,
        -0.9999857544898987
      ],
      "type": "VEC3"
    },
    {
      "bufferView": 1,
      "byteOffset": 22448,
      "componentType": 5126,
      "count": 136,
      "max": [
        0.625,
        0.75
      ],
      "min": [
        0.3749999403953552,
        0.5
      ],
      "type": "VEC2"
    },
    {
      "bufferView": 0,
      "byteOffset": 23184,
      "componentType": 5125,
      "count": 300,
      "type": "SCALAR"
    },
    {
      "bufferView": 2,
      "byteOffset": 70608,
      "componentType": 5126,
      "count": 364,
      "max": [
        13.777130126953125,
        2.9376909732818604,
        2.528932571411133
      ],
      "min": [
        -13.777130126953125,
        -4.488921642303467,
        -2.2260098457336426
      ],
      "type": "VEC3"
    },
    {
      "bufferView": 2,
      "byteOffset": 74976,
      "componentType": 5126,
      "count": 364,
      "max": [
        1.0,
        1.0,
        1.0
      ],
      "min": [
        -1.0,
        -0.9999514818191528,
        -1.0
      ],
      "type": "VEC3"
    },
    {
      "bufferView": 1,
      "byteOffset": 23536,
      "componentType": 5126,
      "count": 364,
      "max": [
        0.7225351929664612,
        0.75
      ],
      "min": [
        0.3749999701976776,
        0.25
      ],
      "type": "VEC2"
    },
    {
      "bufferView": 0,
      "byteOffset": 24384,
      "componentType": 5125,
      "count": 876,
      "type": "SCALAR"
    },
    {
      "bufferView": 2,
      "byteOffset": 79344,
      "componentType": 5126,
      "count": 168,
      "max": [
        18.458789825439453,
        1.4972527027130127,
        5.542473316192627
      ],
      "min": [
        -18.458789825439453,
        -1.6976659297943115,
        -12.60643482208252
      ],
      "type": "VEC3"
    },
    {
      "bufferView": 2,
      "byteOffset": 81360,
      "componentType": 5126,
      "count": 168,
      "max": [
        1.0,
        1.0,
        1.0
      ],
      "min": [
        -1.0,
        -0.999928891658783,
        -1.0
      ],
      "type": "VEC3"
    },
    {
      "bufferView": 1,
      "byteOffset": 26448,
      "componentType": 5126,
      "count": 168,
      "max": [
        0.875,
        1.0
      ],
      "min": [
        0.125,
        0.25
      ],
      "type": "VEC2"
    },
    {
      "bufferView": 0,
      "byteOffset": 27888,
      "componentType": 5125,
      "count": 372,
      "type": "SCALAR"
    },
    {
      "bufferView": 2,
      "byteOffset": 83376,
      "componentType": 5126,
      "count": 402,
      "max": [
        4.969155788421631,
        0.4933054447174072,
        0.9945668578147888
      ],
      "min": [
        -4.969155788421631,
        -1.8487989902496338,
        -2.269991397857666
      ],
      "type": "VEC3"
    },
    {
      "bufferView": 2,
      "byteOffset": 88200,
      "componentType": 5126,
      "count": 402,
      "max": [
        1.0,
        1.0,
        1.0
      ],
      "min": [
        -1.0,
        -1.0,
        -1.0
      ],
      "type": "VEC3"
    },
    {
      "bufferView": 1,
      "byteOffset": 27792,
      "componentType": 5126,
      "count": 402,
      "max": [
        0.7916666269302368,
        0.9166666269302368
      ],
      "min": [
        0.2083333134651184,
        0.29722219705581665
      ],
      "type": "VEC2"
    },
    {
      "bufferView": 0,
      "byteOffset": 29376,
      "componentType": 5125,
      "count": 612,
      "type": "SCALAR"
    },
    {
      "bufferView": 2,
      "byteOffset": 93024,
      "componentType": 5126,
      "count": 144,
      "max": [
        18.458789825439453,
        1.4972527027130127,
        5.542473316192627
      ],
      "min": [
        -18.458789825439453,
        -1.1828621625900269,
        -2.727433443069458
      ],
      "type": "VEC3"
    },
    {
      "bufferView": 2,
      "byteOffset": 94752,
      "componentType": 5126,
      "count": 144,
      "max": [
        1.0,
        1.0,
        1.0
      ],
      "min": [
        -1.0,
        -0.999928891658783,
        -0.8809229731559753
      ],
      "type": "VEC3"
    },
    {
      "bufferView": 1,
      "byteOffset": 31008,
      "componentType": 5126,
      "count": 144,
      "max": [
        0.875,
        0.75
      ],
      "min": [
        0.3749999701976776,
        0.47825920581817627
      ],
      "type": "VEC2"
    },
    {
      "bufferView": 0,
      "byteOffset": 31824,
      "componentType": 5125,
      "count": 372,
      "type": "SCALAR"
    },
    {
      "bufferView": 2,
      "byteOffset": 96480,
      "componentType": 5126,
      "count": 642,
      "max": [
        13.599270820617676,
        5.933538436889648,
        4.98651123046875
      ],
      "min": [
        -13.599270820617676,
        -4.515025615692139,
        -5.796177864074707
      ],
      "type": "VEC3"
    },
    {
      "bufferView": 2,
      "byteOffset": 104184,
      "componentType": 5126,
      "count": 642,
      "max": [
        1.0,
        0.9834836721420288,
        1.0
      ],
      "min": [
        -1.0,
        -0.9532065987586975,
        -0.999997615814209
      ],
      "type": "VEC3"
    },
    {
      "bufferView": 1,
      "byteOffset": 32160,
      "componentType": 5126,
      "count": 642,
      "max": [
        0.6366159319877625,
        0.891882061958313
      ],
      "min": [
        0.2331179678440094,
        0.48838406801223755
      ],
      "type": "VEC2"
    },
    {
      "bufferView": 0,
      "byteOffset": 33312,
      "componentType": 5125,
      "count": 1236,
      "type": "SCALAR"
    }
  ],
  "asset": {
    "extras": {
      "author": "DevPoly3D (https://sketchfab.com/DevPoly3D)",
      "license": "CC-BY-4.0 (http://creativecommons.org/licenses/by/4.0/)",
      "source": "https://sketchfab.com/3d-models/ultimate-car-spoiler-pack-game-ready-61834dfc0ef444e8a41e10477dd5318c",
      "title": "Ultimate Car Spoiler Pack | Game-Ready"
    },
    "generator": "Sketchfab-16.75.0",
    "version": "2.0"
  },
  "bufferViews": [
    {
      "buffer": 0,
      "byteLength": 38256,
      "name": "floatBufferViews",
      "target": 34963
    },
    {
      "buffer": 0,
      "byteLength": 37296,
      "byteOffset": 38256,
      "byteStride": 8,
      "name": "floatBufferViews",
      "target": 34962
    },
    {
      "buffer": 0,
      "byteLength": 111888,
      "byteOffset": 75552,
      "byteStride": 12,
      "name": "floatBufferViews",
      "target": 34962
    }
  ],
  "buffers": [
    {
      "byteLength": 187440,
      "uri": "scene.bin"
    }
  ],
  "extensionsUsed": [
    "KHR_materials_specular"
  ],
  "materials": [
    {
      "doubleSided": true,
      "extensions": {
        "KHR_materials_specular": {
          "specularColorFactor": [
            1.0,
            1.0,
            1.0
          ],
          "specularFactor": 0.059428752544769654
        }
      },
      "name": "Material1",
      "pbrMetallicRoughness": {
        "baseColorFactor": [
          0.40990987343505997,
          0.40990987343505997,
          0.40990987343505997,
          1.0
        ],
        "metallicFactor": 0.0,
        "roughnessFactor": 0.0
      }
    },
    {
      "doubleSided": true,
      "name": "Material2",
      "pbrMetallicRoughness": {
        "baseColorFactor": [
          0.06725368186183119,
          0.06725368186183119,
          0.06725368186183119,
          1.0
        ],
        "metallicFactor": 0.0,
        "roughnessFactor": 0.07161926588728651
      }
    }
  ],
  "meshes": [
    {
      "name": "Cube_Material1_0",
      "primitives": [
        {
          "attributes": {
            "NORMAL": 1,
            "POSITION": 0,
            "TEXCOORD_0": 2
          },
          "indices": 3,
          "material": 0,
          "mode": 4
        }
      ]
    },
    {
      "name": "Cube.001_Material1_0",
      "primitives": [
        {
          "attributes": {
            "NORMAL": 5,
            "POSITION": 4,
            "TEXCOORD_0": 6
          },
          "indices": 7,
          "material": 0,
          "mode": 4
        }
      ]
    },
    {
      "name": "Cube.002_Material1_0",
      "primitives": [
        {
          "attributes": {
            "NORMAL": 9,
            "POSITION": 8,
            "TEXCOORD_0": 10
          },
          "indices": 11,
          "material": 0,
          "mode": 4
        }
      ]
    },
    {
      "name": "Cube.003_Material1_0",
      "primitives": [
        {
          "attributes": {
            "NORMAL": 13,
            "POSITION": 12,
            "TEXCOORD_0": 14
          },
          "indices": 15,
          "material": 0,
          "mode": 4
        }
      ]
    },
    {
      "name": "Cube.004_Material1_0",
      "primitives": [
        {
          "attributes": {
            "NORMAL": 17,
            "POSITION": 16,
            "TEXCOORD_0": 18
          },
          "indices": 19,
          "material": 0,
          "mode": 4
        }
      ]
    },
    {
      "name": "Cube.005_Material1_0",
      "primitives": [
        {
          "attributes": {
            "NORMAL": 21,
            "POSITION": 20,
            "TEXCOORD_0": 22
          },
          "indices": 23,
          "material": 0,
          "mode": 4
        }
      ]
    },
    {
      "name": "Cube.006_Material1_0",
      "primitives": [
        {
          "attributes": {
            "NORMAL": 25,
            "POSITION": 24,
            "TEXCOORD_0": 26
          },
          "indices": 27,
          "material": 0,
          "mode": 4
        }
      ]
    },
    {
      "name": "Cube.007_Material1_0",
      "primitives": [
        {
          "attributes": {
            "NORMAL": 29,
            "POSITION": 28,
            "TEXCOORD_0": 30
          },
          "indices": 31,
          "material": 0,
          "mode": 4
        }
      ]
    },
    {
      "name": "Cube.008_Material1_0",
      "primitives": [
        {
          "attributes": {
            "NORMAL": 33,
            "POSITION": 32,
            "TEXCOORD_0": 34
          },
          "indices": 35,
          "material": 0,
          "mode": 4
        }
      ]
    },
    {
      "name": "Cube.009_Material1_0",
      "primitives": [
        {
          "attributes": {
            "NORMAL": 37,
            "POSITION": 36,
            "TEXCOORD_0": 38
          },
          "indices": 39,
          "material": 0,
          "mode": 4
        }
      ]
    },
    {
      "name": "Cube.010_Material2_0",
      "primitives": [
        {
          "attributes": {
            "NORMAL": 41,
            "POSITION": 40,
            "TEXCOORD_0": 42
          },
          "indices": 43,
          "material": 1,
          "mode": 4
        }
      ]
    },
    {
      "name": "Cube.011_Material2_0",
      "primitives": [
        {
          "attributes": {
            "NORMAL": 45,
            "POSITION": 44,
            "TEXCOORD_0": 46
          },
          "indices": 47,
          "material": 1,
          "mode": 4
        }
      ]
    },
    {
      "name": "Cube.012_Material2_0",
      "primitives": [
        {
          "attributes": {
            "NORMAL": 49,
            "POSITION": 48,
            "TEXCOORD_0": 50
          },
          "indices": 51,
          "material": 1,
          "mode": 4
        }
      ]
    },
    {
      "name": "Cube.013_Material2_0",
      "primitives": [
        {
          "attributes": {
            "NORMAL": 53,
            "POSITION": 52,
            "TEXCOORD_0": 54
          },
          "indices": 55,
          "material": 1,
          "mode": 4
        }
      ]
    },
    {
      "name": "Cube.014_Material2_0",
      "primitives": [
        {
          "attributes": {
            "NORMAL": 57,
            "POSITION": 56,
            "TEXCOORD_0": 58
          },
          "indices": 59,
          "material": 1,
          "mode": 4
        }
      ]
    },
    {
      "name": "Cube.015_Material2_0",
      "primitives": [
        {
          "attributes": {
            "NORMAL": 61,
            "POSITION": 60,
            "TEXCOORD_0": 62
          },
          "indices": 63,
          "material": 1,
          "mode": 4
        }
      ]
    },
    {
      "name": "Cube.016_Material2_0",
      "primitives": [
        {
          "attributes": {
            "NORMAL": 65,
            "POSITION": 64,
            "TEXCOORD_0": 66
          },
          "indices": 67,
          "material": 1,
          "mode": 4
        }
      ]
    },
    {
      "name": "Cube.017_Material2_0",
      "primitives": [
        {
          "attributes": {
            "NORMAL": 69,
            "POSITION": 68,
            "TEXCOORD_0": 70
          },
          "indices": 71,
          "material": 1,
          "mode": 4
        }
      ]
    },
    {
      "name": "Cube.018_Material2_0",
      "primitives": [
        {
          "attributes": {
            "NORMAL": 73,
            "POSITION": 72,
            "TEXCOORD_0": 74
          },
          "indices": 75,
          "material": 1,
          "mode": 4
        }
      ]
    }
  ],
  "nodes": [
    {
      "children": [
        1
      ],
      "matrix": [
        1.0,
        0.0,
        0.0,
        0.0,
        0.0,
        2.220446049250313e-16,
        -1.0,
        0.0,
        0.0,
        1.0,
        2.220446049250313e-16,
        0.0,
        0.0,
        0.0,
        0.0,
        1.0
      ],
      "name": "Sketchfab_model"
    },
    {
      "children": [
        2
      ],
      "matrix": [
        0.009999999776482582,
        0.0,
        0.0,
        0.0,
        0.0,
        0.0,
        0.009999999776482582,
        0.0,
        0.0,
        -0.009999999776482582,
        0.0,
        0.0,
        0.0,
        0.0,
        0.0,
        1.0
      ],
      "name": "CarSpoilers2.fbx"
    },
    {
      "children": [
        3,
        5,
        7,
        9,
        11,
        13,
        15,
        17,
        19,
        21,
        23,
        25,
        27,
        29,
        31,
        33,
        35,
        37,
        39
      ],
      "name": "RootNode"
    },
    {
      "children": [
        4
      ],
      "matrix": [
        100.0,
        0.0,
        0.0,
        0.0,
        0.0,
        -1.629206793918314e-05,
        -99.99999999999868,
        0.0,
        0.0,
        99.99999999999868,
        -1.629206793918314e-05,
        0.0,
        0.0,
        0.0,
        341.90985107421875,
        1.0
      ],
      "name": "Cube"
    },
    {
      "mesh": 0,
      "name": "Cube_Material1_0"
    },
    {
      "children": [
        6
      ],
      "matrix": [
        5.204562664031982,
        0.0,
        0.0,
        0.0,
        0.0,
        -8.479308851614506e-07,
        -5.204562664031914,
        0.0,
        0.0,
        5.204562664031914,
        -8.479308851614506e-07,
        0.0,
        0.0,
        -7.0176544189453125,
        386.9189758300781,
        1.0
      ],
      "name": "Cube.001"
    },
    {
      "mesh": 1,
      "name": "Cube.001_Material1_0"
    },
    {
      "children": [
        8
      ],
      "matrix": [
        10.181901931762695,
        0.0,
        0.0,
        0.0,
        0.0,
        -1.658842380223779e-06,
        -10.18190193176256,
        0.0,
        0.0,
        10.18190193176256,
        -1.658842380223779e-06,
        0.0,
        0.0,
        -10.505206108093262,
        284.39031982421875,
        1.0
      ],
      "name": "Cube.002"
    },
    {
      "mesh": 2,
      "name": "Cube.002_Material1_0"
    },
    {
      "children": [
        10
      ],
      "matrix": [
        9.932840347290039,
        0.0,
        0.0,
        0.0,
        0.0,
        7.499085832697071e-07,
        -9.93284034729001,
        0.0,
        0.0,
        9.93284034729001,
        7.499085832697071e-07,
        0.0,
        0.0,
        0.0,
        194.4396514892578,
        1.0
      ],
      "name": "Cube.003"
    },
    {
      "mesh": 3,
      "name": "Cube.003_Material1_0"
    },
    {
      "children": [
        12
      ],
      "matrix": [
        10.181901931762695,
        0.0,
        0.0,
        0.0,
        0.0,
        -1.658842380223779e-06,
        -10.18190193176256,
        0.0,
        0.0,
        10.18190193176256,
        -1.658842380223779e-06,
        0.0,
        0.0,
        -10.505206108093262,
        143.82081604003906,
        1.0
      ],
      "name": "Cube.004"
    },
    {
      "mesh": 4,
      "name": "Cube.004_Material1_0"
    },
    {
      "children": [
        14
      ],
      "matrix": [
        7.682066917419434,
        0.0,
        0.0,
        0.0,
        0.0,
        5.799799168418947e-07,
        -7.682066917419411,
        0.0,
        0.0,
        7.682066917419411,
        5.799799168418947e-07,
        0.0,
        -2.9802322387695313e-06,
        0.0,
        60.9095573425293,
        1.0
      ],
      "name": "Cube.005"
    },
    {
      "mesh": 5,
      "name": "Cube.005_Material1_0"
    },
    {
      "children": [
        16
      ],
      "matrix": [
        5.6356425285339355,
        0.0,
        0.0,
        0.0,
        0.0,
        -2.5357224902813036e-06,
        -15.564153671264442,
        0.0,
        0.0,
        3.013615846633871,
        -4.909803411595861e-07,
        0.0,
        0.0,
        -1.954544186592102,
        -12.92119026184082,
        1.0
      ],
      "name": "Cube.006"
    },
    {
      "mesh": 6,
      "name": "Cube.006_Material1_0"
    },
    {
      "children": [
        18
      ],
      "matrix": [
        20.681690216064453,
        0.0,
        0.0,
        0.0,
        0.0,
        -3.3694750209726133e-06,
        -20.68169021606418,
        0.0,
        0.0,
        20.68169021606418,
        -3.3694750209726133e-06,
        0.0,
        0.0,
        0.0,
        -101.4567642211914,
        1.0
      ],
      "name": "Cube.007"
    },
    {
      "mesh": 7,
      "name": "Cube.007_Material1_0"
    },
    {
      "children": [
        20
      ],
      "matrix": [
        5.6356425285339355,
        0.0,
        0.0,
        0.0,
        0.0,
        -2.5357224902813036e-06,
        -15.564153671264442,
        0.0,
        0.0,
        3.013615846633871,
        -4.909803411595861e-07,
        0.0,
        0.0,
        -1.954544186592102,
        -170.97471618652344,
        1.0
      ],
      "name": "Cube.008"
    },
    {
      "mesh": 8,
      "name": "Cube.008_Material1_0"
    },
    {
      "children": [
        22
      ],
      "matrix": [
        10.181901931762695,
        0.0,
        0.0,
        0.0,
        0.0,
        -1.658842380223779e-06,
        -10.18190193176256,
        0.0,
        0.0,
        10.18190193176256,
        -1.658842380223779e-06,
        0.0,
        0.0,
        -10.505206108093262,
        -245.96383666992188,
        1.0
      ],
      "name": "Cube.009"
    },
    {
      "mesh": 9,
      "name": "Cube.009_Material1_0"
    },
    {
      "children": [
        24
      ],
      "matrix": [
        100.0,
        0.0,
        0.0,
        0.0,
        0.0,
        -1.629206793918314e-05,
        -99.99999999999868,
        0.0,
        0.0,
        99.99999999999868,
        -1.629206793918314e-05,
        0.0,
        0.0,
        0.0,
        341.90985107421875,
        1.0
      ],
      "name": "Cube.010"
    },
    {
      "mesh": 10,
      "name": "Cube.010_Material2_0"
    },
    {
      "children": [
        26
      ],
      "matrix": [
        10.181901931762695,
        0.0,
        0.0,
        0.0,
        0.0,
        -1.658842380223779e-06,
        -10.18190193176256,
        0.0,
        0.0,
        10.18190193176256,
        -1.658842380223779e-06,
        0.0,
        0.0,
        -10.505206108093262,
        284.39031982421875,
        1.0
      ],
      "name": "Cube.011"
    },
    {
      "mesh": 11,
      "name": "Cube.011_Material2_0"
    },
    {
      "children": [
        28
      ],
      "matrix": [
        9.932840347290039,
        0.0,
        0.0,
        0.0,
        0.0,
        7.499085832697071e-07,
        -9.93284034729001,
        0.0,
        0.0,
        9.93284034729001,
        7.499085832697071e-07,
        0.0,
        0.0,
        0.0,
        194.4396514892578,
        1.0
      ],
      "name": "Cube.012"
    },
    {
      "mesh": 12,
      "name": "Cube.012_Material2_0"
    },
    {
      "children": [
        30
      ],
      "matrix": [
        10.181901931762695,
        0.0,
        0.0,
        0.0,
        0.0,
        -1.658842380223779e-06,
        -10.18190193176256,
        0.0,
        0.0,
        10.18190193176256,
        -1.658842380223779e-06,
        0.0,
        0.0,
        -10.505206108093262,
        143.82081604003906,
        1.0
      ],
      "name": "Cube.013"
    },
    {
      "mesh": 13,
      "name": "Cube.013_Material2_0"
    },
    {
      "children": [
        32
      ],
      "matrix": [
        7.682066917419434,
        0.0,
        0.0,
        0.0,
        0.0,
        5.799799168418947e-07,
        -7.682066917419411,
        0.0,
        0.0,
        7.682066917419411,
        5.799799168418947e-07,
        0.0,
        -2.9802322387695313e-06,
        0.0,
        60.9095573425293,
        1.0
      ],
      "name": "Cube.014"
    },
    {
      "mesh": 14,
      "name": "Cube.014_Material2_0"
    },
    {
      "children": [
        34
      ],
      "matrix": [
        5.6356425285339355,
        0.0,
        0.0,
        0.0,
        0.0,
        -2.5357224902813036e-06,
        -15.564153671264442,
        0.0,
        0.0,
        3.013615846633871,
        -4.909803411595861e-07,
        0.0,
        0.0,
        -1.954544186592102,
        -12.92119026184082,
        1.0
      ],
      "name": "Cube.015"
    },
    {
      "mesh": 15,
      "name": "Cube.015_Material2_0"
    },
    {
      "children": [
        36
      ],
      "matrix": [
        20.681690216064453,
        0.0,
        0.0,
        0.0,
        0.0,
        -3.3694750209726133e-06,
        -20.68169021606418,
        0.0,
        0.0,
        20.68169021606418,
        -3.3694750209726133e-06,
        0.0,
        0.0,
        0.0,
        -101.4567642211914,
        1.0
      ],
      "name": "Cube.016"
    },
    {
      "mesh": 16,
      "name": "Cube.016_Material2_0"
    },
    {
      "children": [
        38
      ],
      "matrix": [
        5.6356425285339355,
        0.0,
        0.0,
        0.0,
        0.0,
        -2.5357224902813036e-06,
        -15.564153671264442,
        0.0,
        0.0,
        3.013615846633871,
        -4.909803411595861e-07,
        0.0,
        0.0,
        -1.954544186592102,
        -170.97471618652344,
        1.0
      ],
      "name": "Cube.017"
    },
    {
      "mesh": 17,
      "name": "Cube.017_Material2_0"
    },
    {
      "children": [
        40
      ],
      "matrix": [
        10.181901931762695,
        0.0,
        0.0,
        0.0,
        0.0,
        -1.658842380223779e-06,
        -10.18190193176256,
        0.0,
        0.0,
        10.18190193176256,
        -1.658842380223779e-06,
        0.0,
        0.0,
        -10.505206108093262,
        -245.96383666992188,
        1.0
      ],
      "name": "Cube.018"
    },
    {
      "mesh": 18,
      "name": "Cube.018_Material2_0"
    }
  ],
  "scene": 0,
  "scenes": [
    {
      "name": "Sketchfab_Scene",
      "nodes": [
        0
      ]
    }
  ]
}
